<svg width="25" height="200" viewBox="0 0 25 200" fill="none" xmlns="http://www.w3.org/2000/svg">
<path d="M14.083 192.458C14.083 192.458 14.083 187.983 18.9031 187.983C23.7232 187.983 23.7232 192.458 23.7232 192.458V199H14.083M14.083 192.458C14.083 192.458 13.0502 189.704 8.91869 189.704C4.7872 189.704 5.13149 194.869 5.13149 194.869V199H14.083M14.083 192.458V199M4.09862 137.716H23.7232V128.076M24.4118 114.305L5.13149 104.664L24.4118 96.0571M1 111.894L3.06574 97.7785M24.7561 78.8426H5.47578L22.0017 63.3495H4.09862M6.85294 28.5761C6.85294 28.5761 4.64042 31.549 4.44291 34.4291C4.05863 40.0325 8.46648 44.7578 14.083 44.7578C19.6996 44.7578 23.4767 40.0448 23.3789 34.4291C23.3306 31.6576 22.0017 28.5761 22.0017 28.5761M23.7232 0V10.3287H13.3945M5.13149 0.688599L5.13149 10.3287H13.3945M13.3945 2.41005V10.3287M24.4118 172.49L18.2145 169.612M24.4118 155.275L18.2145 157.931M18.2145 169.612L5.13149 163.538L18.2145 157.931M18.2145 169.612V157.931" stroke="#393939" stroke-width="2"/>
</svg>
