<svg width="201" height="26" viewBox="0 0 201 26" fill="none" xmlns="http://www.w3.org/2000/svg">
<path d="M8.54152 15.083C8.54152 15.083 13.0173 15.083 13.0173 19.9031C13.0173 24.7232 8.54152 24.7232 8.54152 24.7232H2V15.083M8.54152 15.083C8.54152 15.083 11.2958 14.0502 11.2958 9.91869C11.2958 5.7872 6.13149 6.13149 6.13149 6.13149H2V15.083M8.54152 15.083H2M63.2837 5.09862V24.7232H72.9239M86.6955 25.4118L96.3356 6.13149L104.943 25.4118M89.1055 2L103.221 4.06574M122.157 25.7561V6.47578L137.651 23.0017V5.09862M172.424 7.85294C172.424 7.85294 169.451 5.64042 166.571 5.44291C160.968 5.05863 156.242 9.46648 156.242 15.083C156.242 20.6996 160.955 24.4767 166.571 24.3789C169.342 24.3306 172.424 23.0017 172.424 23.0017M201 24.7232H190.671V14.3945M200.311 6.13149H190.671V14.3945M198.59 14.3945H190.671M28.5104 25.4118L31.3877 19.2145M45.7249 25.4118L43.069 19.2145M31.3877 19.2145L37.4619 6.13149L43.069 19.2145M31.3877 19.2145H43.069" stroke="white" stroke-width="2.06574"/>
</svg>
