<svg width="150" height="26" viewBox="0 0 150 26" fill="none" xmlns="http://www.w3.org/2000/svg">
<path d="M-43.0805 14.7051C-43.0805 14.7051 -38.6047 14.7051 -38.6047 19.5252C-38.6047 24.3453 -43.0805 24.3453 -43.0805 24.3453H-49.622V14.7051M-43.0805 14.7051C-43.0805 14.7051 -40.3261 13.6722 -40.3261 9.54076C-40.3261 5.40927 -45.4905 5.75356 -45.4905 5.75356H-49.622V14.7051M-43.0805 14.7051H-49.622M11.6618 4.72069V24.3453H21.3019M35.0735 25.0338L44.7137 5.75356L53.3209 25.0338M37.4836 1.62207L51.5995 3.68781M70.5355 25.3781V6.09785L86.0285 22.6238V4.72069M120.802 7.47501C120.802 7.47501 117.829 5.26249 114.949 5.06498C109.346 4.6807 104.62 9.08855 104.62 14.7051C104.62 20.3217 109.333 24.0988 114.949 24.001C117.72 23.9527 120.802 22.6238 120.802 22.6238M149.378 24.3453H139.049V14.0165M148.689 5.75356H139.049V14.0165M146.968 14.0165H139.049M-23.1116 25.0338L-20.2343 18.8366M-5.89706 25.0338L-8.55302 18.8366M-20.2343 18.8366L-14.16 5.75356L-8.55302 18.8366M-20.2343 18.8366H-8.55302" stroke="#393939" stroke-width="2"/>
</svg>
